<svg xmlns="http://www.w3.org/2000/svg" xmlns:xlink="http://www.w3.org/1999/xlink" width="1920" zoomAndPan="magnify" viewBox="0 0 1440 1439.999935" height="1920" preserveAspectRatio="xMidYMid meet" version="1.0"><defs><g/></defs><rect x="-144" width="1728" fill="#ffffff" y="-143.999994" height="1727.999922" fill-opacity="1"/><rect x="-144" width="1728" fill="#121212" y="-143.999994" height="1727.999922" fill-opacity="1"/><g fill="#ffffff" fill-opacity="1"><g transform="translate(275.045517, 771.918154)"><g><path d="M 8.722656 -109.027344 C 4.671875 -109.027344 1.558594 -105.914062 1.558594 -101.863281 L 1.558594 -94.699219 C 1.558594 -90.648438 4.671875 -87.535156 8.722656 -87.535156 L 42.675781 -87.535156 L 42.675781 -7.007812 C 42.675781 -3.113281 45.949219 0 49.839844 0 L 64.171875 0 C 68.066406 0 71.335938 -3.113281 71.335938 -7.007812 L 71.335938 -87.535156 L 105.289062 -87.535156 C 109.339844 -87.535156 112.453125 -90.648438 112.453125 -94.699219 L 112.453125 -101.863281 C 112.453125 -105.914062 109.339844 -109.027344 105.289062 -109.027344 Z M 8.722656 -109.027344 "/></g></g></g><g fill="#ffffff" fill-opacity="1"><g transform="translate(389.058429, 771.918154)"><g><path d="M 74.140625 -80.214844 C 74.140625 -82.859375 72.113281 -84.886719 69.464844 -84.886719 C 52.332031 -84.886719 44.390625 -80.214844 35.667969 -73.828125 L 35.667969 -78.65625 C 35.667969 -81.304688 33.644531 -83.328125 30.996094 -83.328125 L 14.019531 -83.328125 C 11.371094 -83.328125 9.34375 -81.304688 9.34375 -78.65625 L 9.34375 -4.671875 C 9.34375 -2.023438 11.371094 0 14.019531 0 L 30.996094 0 C 33.644531 0 35.667969 -2.023438 35.667969 -4.671875 L 35.667969 -53.269531 C 41.273438 -59.964844 47.503906 -64.480469 55.292969 -64.480469 C 59.34375 -64.480469 63.390625 -64.015625 66.972656 -64.015625 L 69.464844 -64.015625 C 72.113281 -64.015625 74.140625 -66.039062 74.140625 -68.6875 Z M 74.140625 -80.214844 "/></g></g></g><g fill="#ffffff" fill-opacity="1"><g transform="translate(464.755634, 771.918154)"><g><path d="M 50.621094 -15.730469 C 37.382812 -15.730469 30.996094 -23.363281 30.996094 -41.742188 C 30.996094 -60.121094 37.382812 -67.597656 50.621094 -67.597656 C 63.859375 -67.597656 70.246094 -60.121094 70.246094 -41.742188 C 70.246094 -23.363281 63.859375 -15.730469 50.621094 -15.730469 Z M 50.621094 -84.886719 C 21.183594 -84.886719 4.671875 -70.402344 4.671875 -41.742188 C 4.671875 -13.082031 21.183594 1.558594 50.621094 1.558594 C 80.058594 1.558594 96.566406 -13.082031 96.566406 -41.742188 C 96.566406 -70.402344 80.058594 -84.886719 50.621094 -84.886719 Z M 50.621094 -84.886719 "/></g></g></g><g fill="#ffffff" fill-opacity="1"><g transform="translate(565.996577, 771.918154)"><g><path d="M 51.710938 -66.507812 C 59.652344 -66.507812 65.417969 -63.546875 68.066406 -59.34375 C 70.246094 -55.914062 72.894531 -53.734375 76.785156 -53.734375 L 88.15625 -53.734375 C 90.804688 -53.734375 92.828125 -55.761719 92.828125 -58.40625 C 92.828125 -76.164062 76.632812 -84.886719 49.839844 -84.886719 C 21.183594 -84.886719 4.671875 -70.246094 4.671875 -41.585938 C 4.671875 -13.082031 21.027344 1.558594 50.621094 1.558594 C 77.410156 1.558594 93.609375 -7.164062 93.609375 -24.921875 C 93.609375 -27.570312 91.582031 -29.59375 88.9375 -29.59375 L 77.566406 -29.59375 C 73.671875 -29.59375 71.023438 -27.414062 68.84375 -23.984375 C 66.195312 -19.78125 60.433594 -16.820312 52.488281 -16.820312 C 36.914062 -16.820312 31.773438 -24.453125 31.773438 -41.585938 C 31.773438 -58.875 36.914062 -66.507812 51.710938 -66.507812 Z M 51.710938 -66.507812 "/></g></g></g><g fill="#ffffff" fill-opacity="1"><g transform="translate(662.720751, 771.918154)"><g><path d="M 43.300781 -15.730469 C 35.199219 -15.730469 30.996094 -19.78125 30.996094 -25.230469 C 30.996094 -30.371094 35.199219 -34.421875 42.519531 -34.421875 L 65.882812 -34.421875 L 65.882812 -22.585938 C 60.433594 -19.15625 52.644531 -15.730469 43.300781 -15.730469 Z M 50.308594 -67.597656 C 60.746094 -67.597656 65.882812 -63.859375 65.882812 -51.710938 L 40.652344 -51.710938 C 20.25 -51.710938 4.671875 -42.832031 4.671875 -25.230469 C 4.671875 -7.632812 20.25 1.558594 40.652344 1.558594 C 52.644531 1.558594 61.210938 -2.023438 68.21875 -7.007812 L 68.21875 -4.671875 C 68.21875 -2.023438 70.246094 0 72.894531 0 L 87.535156 0 C 90.183594 0 92.207031 -2.023438 92.207031 -4.671875 L 92.207031 -51.710938 C 92.207031 -75.539062 74.605469 -84.886719 52.175781 -84.886719 C 26.945312 -84.886719 10.746094 -79.277344 10.746094 -63.082031 C 10.746094 -60.433594 12.773438 -58.40625 15.417969 -58.40625 L 26.789062 -58.40625 C 30.683594 -58.40625 33.488281 -59.964844 35.511719 -62.457031 C 38.160156 -65.726562 43.921875 -67.597656 50.308594 -67.597656 Z M 50.308594 -67.597656 "/></g></g></g><g fill="#ffffff" fill-opacity="1"><g transform="translate(764.27323, 771.918154)"><g><path d="M 35.667969 -63.390625 C 42.054688 -65.417969 48.285156 -66.507812 52.175781 -66.507812 C 66.195312 -66.507812 71.335938 -58.875 71.335938 -41.585938 C 71.335938 -24.453125 66.195312 -16.820312 51.710938 -16.820312 C 45.324219 -16.820312 39.25 -17.601562 35.667969 -18.535156 Z M 9.34375 -7.007812 C 17.445312 -2.335938 35.355469 1.558594 50.152344 1.558594 C 82.082031 1.558594 98.4375 -13.082031 98.4375 -41.585938 C 98.4375 -70.246094 81.925781 -84.886719 57.628906 -84.886719 C 48.285156 -84.886719 42.054688 -83.015625 35.667969 -80.992188 L 35.667969 -104.355469 C 35.667969 -107.003906 33.644531 -109.027344 30.996094 -109.027344 L 14.019531 -109.027344 C 11.371094 -109.027344 9.34375 -107.003906 9.34375 -104.355469 Z M 9.34375 -7.007812 "/></g></g></g><g fill="#ffffff" fill-opacity="1"><g transform="translate(867.383388, 771.918154)"><g><path d="M 50.621094 -15.730469 C 37.382812 -15.730469 30.996094 -23.363281 30.996094 -41.742188 C 30.996094 -60.121094 37.382812 -67.597656 50.621094 -67.597656 C 63.859375 -67.597656 70.246094 -60.121094 70.246094 -41.742188 C 70.246094 -23.363281 63.859375 -15.730469 50.621094 -15.730469 Z M 50.621094 -84.886719 C 21.183594 -84.886719 4.671875 -70.402344 4.671875 -41.742188 C 4.671875 -13.082031 21.183594 1.558594 50.621094 1.558594 C 80.058594 1.558594 96.566406 -13.082031 96.566406 -41.742188 C 96.566406 -70.402344 80.058594 -84.886719 50.621094 -84.886719 Z M 50.621094 -84.886719 "/></g></g></g><g fill="#ffffff" fill-opacity="1"><g transform="translate(968.624332, 771.918154)"><g><path d="M 50.621094 -15.730469 C 37.382812 -15.730469 30.996094 -23.363281 30.996094 -41.742188 C 30.996094 -60.121094 37.382812 -67.597656 50.621094 -67.597656 C 63.859375 -67.597656 70.246094 -60.121094 70.246094 -41.742188 C 70.246094 -23.363281 63.859375 -15.730469 50.621094 -15.730469 Z M 50.621094 -84.886719 C 21.183594 -84.886719 4.671875 -70.402344 4.671875 -41.742188 C 4.671875 -13.082031 21.183594 1.558594 50.621094 1.558594 C 80.058594 1.558594 96.566406 -13.082031 96.566406 -41.742188 C 96.566406 -70.402344 80.058594 -84.886719 50.621094 -84.886719 Z M 50.621094 -84.886719 "/></g></g></g><g fill="#ffffff" fill-opacity="1"><g transform="translate(1069.865275, 771.918154)"><g><path d="M 35.667969 -104.355469 C 35.667969 -107.003906 33.644531 -109.027344 30.996094 -109.027344 L 14.019531 -109.027344 C 11.371094 -109.027344 9.34375 -107.003906 9.34375 -104.355469 L 9.34375 -4.671875 C 9.34375 -2.023438 11.371094 0 14.019531 0 L 30.996094 0 C 33.644531 0 35.667969 -2.023438 35.667969 -4.671875 L 35.667969 -33.019531 C 42.675781 -33.019531 49.53125 -29.75 53.734375 -22.894531 L 63.390625 -7.164062 C 65.882812 -3.113281 70.089844 0 75.074219 0 L 89.402344 0 C 93.453125 0 94.542969 -3.113281 92.050781 -7.164062 L 79.125 -28.035156 C 74.449219 -35.511719 69.3125 -39.875 62.925781 -41.742188 C 69.621094 -43.144531 75.851562 -48.59375 79.125 -55.449219 L 88.9375 -76.164062 C 90.804688 -80.214844 90.335938 -83.328125 86.289062 -83.328125 L 71.957031 -83.328125 C 67.441406 -83.328125 63.082031 -80.523438 61.054688 -76.164062 L 53.734375 -60.589844 C 50.621094 -54.046875 44.703125 -50.308594 35.667969 -50.308594 Z M 35.667969 -104.355469 "/></g></g></g></svg>