<svg xmlns="http://www.w3.org/2000/svg" xmlns:xlink="http://www.w3.org/1999/xlink" width="1920" zoomAndPan="magnify" viewBox="0 0 1440 1439.999935" height="1920" preserveAspectRatio="xMidYMid meet" version="1.0"><defs><g/><linearGradient x1="0" gradientTransform="matrix(0.75, 0, 0, 0.75, 0.0000325, -0.00002)" y1="0" x2="1919.99992" gradientUnits="userSpaceOnUse" y2="0" id="2a8f4cf9c4"><stop stop-opacity="1" stop-color="rgb(40.79895%, 61.999512%, 99.598694%)" offset="0"/><stop stop-opacity="1" stop-color="rgb(40.989685%, 62.030029%, 99.598694%)" offset="0.0078125"/><stop stop-opacity="1" stop-color="rgb(41.372681%, 62.091064%, 99.598694%)" offset="0.015625"/><stop stop-opacity="1" stop-color="rgb(41.755676%, 62.1521%, 99.598694%)" offset="0.0234375"/><stop stop-opacity="1" stop-color="rgb(42.138672%, 62.213135%, 99.598694%)" offset="0.03125"/><stop stop-opacity="1" stop-color="rgb(42.521667%, 62.272644%, 99.598694%)" offset="0.0390625"/><stop stop-opacity="1" stop-color="rgb(42.904663%, 62.333679%, 99.598694%)" offset="0.046875"/><stop stop-opacity="1" stop-color="rgb(43.286133%, 62.394714%, 99.598694%)" offset="0.0546875"/><stop stop-opacity="1" stop-color="rgb(43.669128%, 62.45575%, 99.598694%)" offset="0.0625"/><stop stop-opacity="1" stop-color="rgb(44.052124%, 62.516785%, 99.598694%)" offset="0.0703125"/><stop stop-opacity="1" stop-color="rgb(44.43512%, 62.57782%, 99.598694%)" offset="0.078125"/><stop stop-opacity="1" stop-color="rgb(44.818115%, 62.638855%, 99.598694%)" offset="0.0859375"/><stop stop-opacity="1" stop-color="rgb(45.201111%, 62.69989%, 99.598694%)" offset="0.09375"/><stop stop-opacity="1" stop-color="rgb(45.584106%, 62.760925%, 99.598694%)" offset="0.101562"/><stop stop-opacity="1" stop-color="rgb(45.967102%, 62.82196%, 99.598694%)" offset="0.109375"/><stop stop-opacity="1" stop-color="rgb(46.350098%, 62.882996%, 99.598694%)" offset="0.117188"/><stop stop-opacity="1" stop-color="rgb(46.731567%, 62.944031%, 99.598694%)" offset="0.125"/><stop stop-opacity="1" stop-color="rgb(47.114563%, 63.005066%, 99.598694%)" offset="0.132812"/><stop stop-opacity="1" stop-color="rgb(47.497559%, 63.066101%, 99.598694%)" offset="0.140625"/><stop stop-opacity="1" stop-color="rgb(47.880554%, 63.127136%, 99.598694%)" offset="0.148438"/><stop stop-opacity="1" stop-color="rgb(48.26355%, 63.188171%, 99.598694%)" offset="0.15625"/><stop stop-opacity="1" stop-color="rgb(48.646545%, 63.247681%, 99.598694%)" offset="0.164062"/><stop stop-opacity="1" stop-color="rgb(49.029541%, 63.308716%, 99.598694%)" offset="0.171875"/><stop stop-opacity="1" stop-color="rgb(49.412537%, 63.369751%, 99.598694%)" offset="0.179688"/><stop stop-opacity="1" stop-color="rgb(49.794006%, 63.430786%, 99.598694%)" offset="0.1875"/><stop stop-opacity="1" stop-color="rgb(50.177002%, 63.491821%, 99.598694%)" offset="0.195312"/><stop stop-opacity="1" stop-color="rgb(50.559998%, 63.552856%, 99.598694%)" offset="0.203125"/><stop stop-opacity="1" stop-color="rgb(50.942993%, 63.613892%, 99.598694%)" offset="0.210938"/><stop stop-opacity="1" stop-color="rgb(51.325989%, 63.674927%, 99.598694%)" offset="0.21875"/><stop stop-opacity="1" stop-color="rgb(51.708984%, 63.735962%, 99.598694%)" offset="0.226562"/><stop stop-opacity="1" stop-color="rgb(52.09198%, 63.796997%, 99.598694%)" offset="0.234375"/><stop stop-opacity="1" stop-color="rgb(52.474976%, 63.858032%, 99.598694%)" offset="0.242188"/><stop stop-opacity="1" stop-color="rgb(52.856445%, 63.919067%, 99.598694%)" offset="0.25"/><stop stop-opacity="1" stop-color="rgb(53.239441%, 63.980103%, 99.598694%)" offset="0.257812"/><stop stop-opacity="1" stop-color="rgb(53.622437%, 64.041138%, 99.598694%)" offset="0.265625"/><stop stop-opacity="1" stop-color="rgb(54.005432%, 64.102173%, 99.598694%)" offset="0.273438"/><stop stop-opacity="1" stop-color="rgb(54.388428%, 64.163208%, 99.598694%)" offset="0.28125"/><stop stop-opacity="1" stop-color="rgb(54.771423%, 64.222717%, 99.598694%)" offset="0.289062"/><stop stop-opacity="1" stop-color="rgb(55.154419%, 64.283752%, 99.598694%)" offset="0.296875"/><stop stop-opacity="1" stop-color="rgb(55.537415%, 64.344788%, 99.598694%)" offset="0.304688"/><stop stop-opacity="1" stop-color="rgb(55.92041%, 64.405823%, 99.598694%)" offset="0.3125"/><stop stop-opacity="1" stop-color="rgb(56.30188%, 64.466858%, 99.598694%)" offset="0.320312"/><stop stop-opacity="1" stop-color="rgb(56.684875%, 64.527893%, 99.598694%)" offset="0.328125"/><stop stop-opacity="1" stop-color="rgb(57.067871%, 64.588928%, 99.598694%)" offset="0.335938"/><stop stop-opacity="1" stop-color="rgb(57.450867%, 64.649963%, 99.598694%)" offset="0.34375"/><stop stop-opacity="1" stop-color="rgb(57.833862%, 64.710999%, 99.598694%)" offset="0.351562"/><stop stop-opacity="1" stop-color="rgb(58.216858%, 64.772034%, 99.598694%)" offset="0.359375"/><stop stop-opacity="1" stop-color="rgb(58.599854%, 64.833069%, 99.598694%)" offset="0.367188"/><stop stop-opacity="1" stop-color="rgb(58.982849%, 64.894104%, 99.598694%)" offset="0.375"/><stop stop-opacity="1" stop-color="rgb(59.364319%, 64.955139%, 99.598694%)" offset="0.382812"/><stop stop-opacity="1" stop-color="rgb(59.747314%, 65.016174%, 99.598694%)" offset="0.390625"/><stop stop-opacity="1" stop-color="rgb(60.13031%, 65.077209%, 99.598694%)" offset="0.398438"/><stop stop-opacity="1" stop-color="rgb(60.513306%, 65.136719%, 99.598694%)" offset="0.40625"/><stop stop-opacity="1" stop-color="rgb(60.896301%, 65.197754%, 99.598694%)" offset="0.414062"/><stop stop-opacity="1" stop-color="rgb(61.279297%, 65.258789%, 99.598694%)" offset="0.421875"/><stop stop-opacity="1" stop-color="rgb(61.662292%, 65.319824%, 99.598694%)" offset="0.429688"/><stop stop-opacity="1" stop-color="rgb(62.045288%, 65.380859%, 99.598694%)" offset="0.4375"/><stop stop-opacity="1" stop-color="rgb(62.426758%, 65.441895%, 99.598694%)" offset="0.445312"/><stop stop-opacity="1" stop-color="rgb(62.809753%, 65.50293%, 99.598694%)" offset="0.453125"/><stop stop-opacity="1" stop-color="rgb(63.192749%, 65.563965%, 99.598694%)" offset="0.460938"/><stop stop-opacity="1" stop-color="rgb(63.575745%, 65.625%, 99.598694%)" offset="0.46875"/><stop stop-opacity="1" stop-color="rgb(63.95874%, 65.686035%, 99.598694%)" offset="0.476562"/><stop stop-opacity="1" stop-color="rgb(64.341736%, 65.74707%, 99.598694%)" offset="0.484375"/><stop stop-opacity="1" stop-color="rgb(64.724731%, 65.808105%, 99.598694%)" offset="0.492188"/><stop stop-opacity="1" stop-color="rgb(65.107727%, 65.869141%, 99.598694%)" offset="0.5"/><stop stop-opacity="1" stop-color="rgb(65.490723%, 65.930176%, 99.598694%)" offset="0.507812"/><stop stop-opacity="1" stop-color="rgb(65.872192%, 65.991211%, 99.598694%)" offset="0.515625"/><stop stop-opacity="1" stop-color="rgb(66.255188%, 66.052246%, 99.598694%)" offset="0.523438"/><stop stop-opacity="1" stop-color="rgb(66.638184%, 66.111755%, 99.598694%)" offset="0.53125"/><stop stop-opacity="1" stop-color="rgb(67.021179%, 66.172791%, 99.598694%)" offset="0.539062"/><stop stop-opacity="1" stop-color="rgb(67.404175%, 66.233826%, 99.598694%)" offset="0.546875"/><stop stop-opacity="1" stop-color="rgb(67.78717%, 66.294861%, 99.598694%)" offset="0.554688"/><stop stop-opacity="1" stop-color="rgb(68.170166%, 66.355896%, 99.598694%)" offset="0.5625"/><stop stop-opacity="1" stop-color="rgb(68.553162%, 66.416931%, 99.598694%)" offset="0.570312"/><stop stop-opacity="1" stop-color="rgb(68.934631%, 66.477966%, 99.598694%)" offset="0.578125"/><stop stop-opacity="1" stop-color="rgb(69.317627%, 66.539001%, 99.598694%)" offset="0.585938"/><stop stop-opacity="1" stop-color="rgb(69.700623%, 66.600037%, 99.598694%)" offset="0.59375"/><stop stop-opacity="1" stop-color="rgb(70.083618%, 66.661072%, 99.598694%)" offset="0.601562"/><stop stop-opacity="1" stop-color="rgb(70.466614%, 66.722107%, 99.598694%)" offset="0.609375"/><stop stop-opacity="1" stop-color="rgb(70.849609%, 66.783142%, 99.598694%)" offset="0.617188"/><stop stop-opacity="1" stop-color="rgb(71.232605%, 66.844177%, 99.598694%)" offset="0.625"/><stop stop-opacity="1" stop-color="rgb(71.615601%, 66.905212%, 99.598694%)" offset="0.632812"/><stop stop-opacity="1" stop-color="rgb(71.99707%, 66.966248%, 99.598694%)" offset="0.640625"/><stop stop-opacity="1" stop-color="rgb(72.380066%, 67.027283%, 99.598694%)" offset="0.648438"/><stop stop-opacity="1" stop-color="rgb(72.763062%, 67.086792%, 99.598694%)" offset="0.65625"/><stop stop-opacity="1" stop-color="rgb(73.146057%, 67.147827%, 99.598694%)" offset="0.664062"/><stop stop-opacity="1" stop-color="rgb(73.529053%, 67.208862%, 99.598694%)" offset="0.671875"/><stop stop-opacity="1" stop-color="rgb(73.912048%, 67.269897%, 99.598694%)" offset="0.679688"/><stop stop-opacity="1" stop-color="rgb(74.295044%, 67.330933%, 99.598694%)" offset="0.6875"/><stop stop-opacity="1" stop-color="rgb(74.67804%, 67.391968%, 99.598694%)" offset="0.695312"/><stop stop-opacity="1" stop-color="rgb(75.061035%, 67.453003%, 99.598694%)" offset="0.703125"/><stop stop-opacity="1" stop-color="rgb(75.442505%, 67.514038%, 99.598694%)" offset="0.710938"/><stop stop-opacity="1" stop-color="rgb(75.8255%, 67.575073%, 99.598694%)" offset="0.71875"/><stop stop-opacity="1" stop-color="rgb(76.208496%, 67.636108%, 99.598694%)" offset="0.726562"/><stop stop-opacity="1" stop-color="rgb(76.591492%, 67.697144%, 99.598694%)" offset="0.734375"/><stop stop-opacity="1" stop-color="rgb(76.974487%, 67.758179%, 99.598694%)" offset="0.742188"/><stop stop-opacity="1" stop-color="rgb(77.357483%, 67.819214%, 99.598694%)" offset="0.75"/><stop stop-opacity="1" stop-color="rgb(77.740479%, 67.880249%, 99.598694%)" offset="0.757812"/><stop stop-opacity="1" stop-color="rgb(78.123474%, 67.941284%, 99.598694%)" offset="0.765625"/><stop stop-opacity="1" stop-color="rgb(78.504944%, 68.000793%, 99.598694%)" offset="0.773438"/><stop stop-opacity="1" stop-color="rgb(78.887939%, 68.061829%, 99.598694%)" offset="0.78125"/><stop stop-opacity="1" stop-color="rgb(79.270935%, 68.122864%, 99.598694%)" offset="0.789062"/><stop stop-opacity="1" stop-color="rgb(79.653931%, 68.183899%, 99.598694%)" offset="0.796875"/><stop stop-opacity="1" stop-color="rgb(80.036926%, 68.244934%, 99.598694%)" offset="0.804688"/><stop stop-opacity="1" stop-color="rgb(80.419922%, 68.305969%, 99.598694%)" offset="0.8125"/><stop stop-opacity="1" stop-color="rgb(80.802917%, 68.367004%, 99.598694%)" offset="0.820312"/><stop stop-opacity="1" stop-color="rgb(81.185913%, 68.42804%, 99.598694%)" offset="0.828125"/><stop stop-opacity="1" stop-color="rgb(81.567383%, 68.489075%, 99.598694%)" offset="0.835938"/><stop stop-opacity="1" stop-color="rgb(81.950378%, 68.55011%, 99.598694%)" offset="0.84375"/><stop stop-opacity="1" stop-color="rgb(82.333374%, 68.611145%, 99.598694%)" offset="0.851562"/><stop stop-opacity="1" stop-color="rgb(82.71637%, 68.67218%, 99.598694%)" offset="0.859375"/><stop stop-opacity="1" stop-color="rgb(83.099365%, 68.733215%, 99.598694%)" offset="0.867188"/><stop stop-opacity="1" stop-color="rgb(83.482361%, 68.79425%, 99.598694%)" offset="0.875"/><stop stop-opacity="1" stop-color="rgb(83.865356%, 68.855286%, 99.598694%)" offset="0.882812"/><stop stop-opacity="1" stop-color="rgb(84.248352%, 68.916321%, 99.598694%)" offset="0.890625"/><stop stop-opacity="1" stop-color="rgb(84.631348%, 68.97583%, 99.598694%)" offset="0.898438"/><stop stop-opacity="1" stop-color="rgb(85.012817%, 69.036865%, 99.598694%)" offset="0.90625"/><stop stop-opacity="1" stop-color="rgb(85.395813%, 69.0979%, 99.598694%)" offset="0.914062"/><stop stop-opacity="1" stop-color="rgb(85.778809%, 69.158936%, 99.598694%)" offset="0.921875"/><stop stop-opacity="1" stop-color="rgb(86.161804%, 69.219971%, 99.598694%)" offset="0.929688"/><stop stop-opacity="1" stop-color="rgb(86.5448%, 69.281006%, 99.598694%)" offset="0.9375"/><stop stop-opacity="1" stop-color="rgb(86.927795%, 69.342041%, 99.598694%)" offset="0.945312"/><stop stop-opacity="1" stop-color="rgb(87.310791%, 69.403076%, 99.598694%)" offset="0.953125"/><stop stop-opacity="1" stop-color="rgb(87.693787%, 69.464111%, 99.598694%)" offset="0.960938"/><stop stop-opacity="1" stop-color="rgb(88.075256%, 69.525146%, 99.598694%)" offset="0.96875"/><stop stop-opacity="1" stop-color="rgb(88.458252%, 69.586182%, 99.598694%)" offset="0.976562"/><stop stop-opacity="1" stop-color="rgb(88.841248%, 69.647217%, 99.598694%)" offset="0.984375"/><stop stop-opacity="1" stop-color="rgb(89.224243%, 69.708252%, 99.598694%)" offset="0.992188"/><stop stop-opacity="1" stop-color="rgb(89.607239%, 69.769287%, 99.598694%)" offset="1"/></linearGradient></defs><rect x="-144" width="1728" fill="#ffffff" y="-143.999994" height="1727.999922" fill-opacity="1"/><rect x="-144" fill="url(#2a8f4cf9c4)" width="1728" y="-143.999994" height="1727.999922"/><g fill="#ffffff" fill-opacity="1"><g transform="translate(275.045517, 771.918154)"><g><path d="M 8.722656 -109.027344 C 4.671875 -109.027344 1.558594 -105.914062 1.558594 -101.863281 L 1.558594 -94.699219 C 1.558594 -90.648438 4.671875 -87.535156 8.722656 -87.535156 L 42.675781 -87.535156 L 42.675781 -7.007812 C 42.675781 -3.113281 45.949219 0 49.839844 0 L 64.171875 0 C 68.066406 0 71.335938 -3.113281 71.335938 -7.007812 L 71.335938 -87.535156 L 105.289062 -87.535156 C 109.339844 -87.535156 112.453125 -90.648438 112.453125 -94.699219 L 112.453125 -101.863281 C 112.453125 -105.914062 109.339844 -109.027344 105.289062 -109.027344 Z M 8.722656 -109.027344 "/></g></g></g><g fill="#ffffff" fill-opacity="1"><g transform="translate(389.058429, 771.918154)"><g><path d="M 74.140625 -80.214844 C 74.140625 -82.859375 72.113281 -84.886719 69.464844 -84.886719 C 52.332031 -84.886719 44.390625 -80.214844 35.667969 -73.828125 L 35.667969 -78.65625 C 35.667969 -81.304688 33.644531 -83.328125 30.996094 -83.328125 L 14.019531 -83.328125 C 11.371094 -83.328125 9.34375 -81.304688 9.34375 -78.65625 L 9.34375 -4.671875 C 9.34375 -2.023438 11.371094 0 14.019531 0 L 30.996094 0 C 33.644531 0 35.667969 -2.023438 35.667969 -4.671875 L 35.667969 -53.269531 C 41.273438 -59.964844 47.503906 -64.480469 55.292969 -64.480469 C 59.34375 -64.480469 63.390625 -64.015625 66.972656 -64.015625 L 69.464844 -64.015625 C 72.113281 -64.015625 74.140625 -66.039062 74.140625 -68.6875 Z M 74.140625 -80.214844 "/></g></g></g><g fill="#ffffff" fill-opacity="1"><g transform="translate(464.755634, 771.918154)"><g><path d="M 50.621094 -15.730469 C 37.382812 -15.730469 30.996094 -23.363281 30.996094 -41.742188 C 30.996094 -60.121094 37.382812 -67.597656 50.621094 -67.597656 C 63.859375 -67.597656 70.246094 -60.121094 70.246094 -41.742188 C 70.246094 -23.363281 63.859375 -15.730469 50.621094 -15.730469 Z M 50.621094 -84.886719 C 21.183594 -84.886719 4.671875 -70.402344 4.671875 -41.742188 C 4.671875 -13.082031 21.183594 1.558594 50.621094 1.558594 C 80.058594 1.558594 96.566406 -13.082031 96.566406 -41.742188 C 96.566406 -70.402344 80.058594 -84.886719 50.621094 -84.886719 Z M 50.621094 -84.886719 "/></g></g></g><g fill="#ffffff" fill-opacity="1"><g transform="translate(565.996577, 771.918154)"><g><path d="M 51.710938 -66.507812 C 59.652344 -66.507812 65.417969 -63.546875 68.066406 -59.34375 C 70.246094 -55.914062 72.894531 -53.734375 76.785156 -53.734375 L 88.15625 -53.734375 C 90.804688 -53.734375 92.828125 -55.761719 92.828125 -58.40625 C 92.828125 -76.164062 76.632812 -84.886719 49.839844 -84.886719 C 21.183594 -84.886719 4.671875 -70.246094 4.671875 -41.585938 C 4.671875 -13.082031 21.027344 1.558594 50.621094 1.558594 C 77.410156 1.558594 93.609375 -7.164062 93.609375 -24.921875 C 93.609375 -27.570312 91.582031 -29.59375 88.9375 -29.59375 L 77.566406 -29.59375 C 73.671875 -29.59375 71.023438 -27.414062 68.84375 -23.984375 C 66.195312 -19.78125 60.433594 -16.820312 52.488281 -16.820312 C 36.914062 -16.820312 31.773438 -24.453125 31.773438 -41.585938 C 31.773438 -58.875 36.914062 -66.507812 51.710938 -66.507812 Z M 51.710938 -66.507812 "/></g></g></g><g fill="#ffffff" fill-opacity="1"><g transform="translate(662.720751, 771.918154)"><g><path d="M 43.300781 -15.730469 C 35.199219 -15.730469 30.996094 -19.78125 30.996094 -25.230469 C 30.996094 -30.371094 35.199219 -34.421875 42.519531 -34.421875 L 65.882812 -34.421875 L 65.882812 -22.585938 C 60.433594 -19.15625 52.644531 -15.730469 43.300781 -15.730469 Z M 50.308594 -67.597656 C 60.746094 -67.597656 65.882812 -63.859375 65.882812 -51.710938 L 40.652344 -51.710938 C 20.25 -51.710938 4.671875 -42.832031 4.671875 -25.230469 C 4.671875 -7.632812 20.25 1.558594 40.652344 1.558594 C 52.644531 1.558594 61.210938 -2.023438 68.21875 -7.007812 L 68.21875 -4.671875 C 68.21875 -2.023438 70.246094 0 72.894531 0 L 87.535156 0 C 90.183594 0 92.207031 -2.023438 92.207031 -4.671875 L 92.207031 -51.710938 C 92.207031 -75.539062 74.605469 -84.886719 52.175781 -84.886719 C 26.945312 -84.886719 10.746094 -79.277344 10.746094 -63.082031 C 10.746094 -60.433594 12.773438 -58.40625 15.417969 -58.40625 L 26.789062 -58.40625 C 30.683594 -58.40625 33.488281 -59.964844 35.511719 -62.457031 C 38.160156 -65.726562 43.921875 -67.597656 50.308594 -67.597656 Z M 50.308594 -67.597656 "/></g></g></g><g fill="#ffffff" fill-opacity="1"><g transform="translate(764.27323, 771.918154)"><g><path d="M 35.667969 -63.390625 C 42.054688 -65.417969 48.285156 -66.507812 52.175781 -66.507812 C 66.195312 -66.507812 71.335938 -58.875 71.335938 -41.585938 C 71.335938 -24.453125 66.195312 -16.820312 51.710938 -16.820312 C 45.324219 -16.820312 39.25 -17.601562 35.667969 -18.535156 Z M 9.34375 -7.007812 C 17.445312 -2.335938 35.355469 1.558594 50.152344 1.558594 C 82.082031 1.558594 98.4375 -13.082031 98.4375 -41.585938 C 98.4375 -70.246094 81.925781 -84.886719 57.628906 -84.886719 C 48.285156 -84.886719 42.054688 -83.015625 35.667969 -80.992188 L 35.667969 -104.355469 C 35.667969 -107.003906 33.644531 -109.027344 30.996094 -109.027344 L 14.019531 -109.027344 C 11.371094 -109.027344 9.34375 -107.003906 9.34375 -104.355469 Z M 9.34375 -7.007812 "/></g></g></g><g fill="#ffffff" fill-opacity="1"><g transform="translate(867.383388, 771.918154)"><g><path d="M 50.621094 -15.730469 C 37.382812 -15.730469 30.996094 -23.363281 30.996094 -41.742188 C 30.996094 -60.121094 37.382812 -67.597656 50.621094 -67.597656 C 63.859375 -67.597656 70.246094 -60.121094 70.246094 -41.742188 C 70.246094 -23.363281 63.859375 -15.730469 50.621094 -15.730469 Z M 50.621094 -84.886719 C 21.183594 -84.886719 4.671875 -70.402344 4.671875 -41.742188 C 4.671875 -13.082031 21.183594 1.558594 50.621094 1.558594 C 80.058594 1.558594 96.566406 -13.082031 96.566406 -41.742188 C 96.566406 -70.402344 80.058594 -84.886719 50.621094 -84.886719 Z M 50.621094 -84.886719 "/></g></g></g><g fill="#ffffff" fill-opacity="1"><g transform="translate(968.624332, 771.918154)"><g><path d="M 50.621094 -15.730469 C 37.382812 -15.730469 30.996094 -23.363281 30.996094 -41.742188 C 30.996094 -60.121094 37.382812 -67.597656 50.621094 -67.597656 C 63.859375 -67.597656 70.246094 -60.121094 70.246094 -41.742188 C 70.246094 -23.363281 63.859375 -15.730469 50.621094 -15.730469 Z M 50.621094 -84.886719 C 21.183594 -84.886719 4.671875 -70.402344 4.671875 -41.742188 C 4.671875 -13.082031 21.183594 1.558594 50.621094 1.558594 C 80.058594 1.558594 96.566406 -13.082031 96.566406 -41.742188 C 96.566406 -70.402344 80.058594 -84.886719 50.621094 -84.886719 Z M 50.621094 -84.886719 "/></g></g></g><g fill="#ffffff" fill-opacity="1"><g transform="translate(1069.865275, 771.918154)"><g><path d="M 35.667969 -104.355469 C 35.667969 -107.003906 33.644531 -109.027344 30.996094 -109.027344 L 14.019531 -109.027344 C 11.371094 -109.027344 9.34375 -107.003906 9.34375 -104.355469 L 9.34375 -4.671875 C 9.34375 -2.023438 11.371094 0 14.019531 0 L 30.996094 0 C 33.644531 0 35.667969 -2.023438 35.667969 -4.671875 L 35.667969 -33.019531 C 42.675781 -33.019531 49.53125 -29.75 53.734375 -22.894531 L 63.390625 -7.164062 C 65.882812 -3.113281 70.089844 0 75.074219 0 L 89.402344 0 C 93.453125 0 94.542969 -3.113281 92.050781 -7.164062 L 79.125 -28.035156 C 74.449219 -35.511719 69.3125 -39.875 62.925781 -41.742188 C 69.621094 -43.144531 75.851562 -48.59375 79.125 -55.449219 L 88.9375 -76.164062 C 90.804688 -80.214844 90.335938 -83.328125 86.289062 -83.328125 L 71.957031 -83.328125 C 67.441406 -83.328125 63.082031 -80.523438 61.054688 -76.164062 L 53.734375 -60.589844 C 50.621094 -54.046875 44.703125 -50.308594 35.667969 -50.308594 Z M 35.667969 -104.355469 "/></g></g></g></svg>